# xmcd
#
# Track frame offsets:
#	150
#	35100
#	54230
#	80875
#
# Disc length: 1407 seconds
#
# Revision: 1
# Processed by: cddbd v1.5.2PL0 Copyright (c) Steve Scherf et al.
# Submitted via: audiograbber 1.83.01
#
DISCID=30057d04
DTITLE=Basic Black - Whatever It Takes [CDM)
DYEAR=1990
DGENRE=New Jack Swing
TTITLE0=Whatever It Takes (12 Inch)
TTITLE1=Whatever It Takes (7 Inch Edit)
TTITLE2=Whatever It Takes (Instrumental)
TTITLE3=Whatever It Takes (Dub Mix)
EXTD=
EXTT0=
EXTT1=
EXTT2=
EXTT3=
PLAYORDER=
